<svg height='100px' width='100px' xmlns="http://www.w3.org/2000/svg" xmlns:xlink="http://www.w3.org/1999/xlink" version="1.1" x="0px" y="0px" viewBox="0 0 1024 1024" style="enable-background:new 0 0 1024 1024;" xml:space="preserve"><g><path d="M964,135.5V177H508.5c-12.1,0-24.3,0-36.5,0c-3.3,0-6.7,0.1-10,0.2c-0.1,0-0.3,0-0.4,0   c-3.2,0-6.4,0-9.6,0.1V77.5c0-1.6-0.2-3.2-0.2-4.8c0.2-12.1,5.7-22.9,15.7-29.8c11.8-8.2,28-5.9,41.7-5.9h81.5c5,0,10-0.3,15,0.7   c10.1,2,17,8.4,23.1,16.2c5.8,7.4,11.5,14.7,17.3,22.1c3.9,5,7.7,10.1,11.7,15.1c3.8,4.6,8.2,6.8,14,6.8c8.8,0,17.5,0.2,26.3,0.2   h212.4c6,0,12-0.3,17.9-0.2C949.4,98.3,964,115,964,135.5z"></path><path d="M964,217.5v233c0,20.3-13.9,37.2-34.7,38.2c0,0-0.1,0.1-0.1,0.1c-0.3,0-0.6,0.2-0.9,0.2H493.7   c-9.2,0-18.1-0.6-26.2-6.2c-10-6.9-15.5-17.9-15.8-30c0-1.6,0.2-3.2,0.2-4.9V292.8c-12,0.1-24.2,0.2-36,0.2H120v438.2   c6,0,10.8-0.2,16-0.2h316v-15h455.1c0.8,0,1.5,0,2.3,0c2.3,0,4.6,0,7,0c4.6,0,9.2,0,13.8,0c4.6,0,9.2,0,13.8,0h10   c0.2,0,0.4,0,0.6,0c0.2,0,0.4,0,0.7,0c0.2,0,0.3-0.1,0.4-0.1c0,0,0,0,0,0c0.1,0,0.3,0,0.4,0c0.2,0,0.3,0,0.4,0h3.5   c0.1,0,0.2,0.1,0.3,0c0.4,0,0.8,0,1.3,0c0.2,0,0.4,0,0.6,0c0.2,0,0.4,0,0.6,0c0.3,0,0.6,0,0.8,0c0.1,0,0.2,0,0.3,0h0v233.1   c0,20.3-13.9,37.1-34.7,38.1c0,0-0.1-0.1-0.1-0.1c-0.3,0-0.6-0.1-0.9-0.1H493.7c-9.2,0-18.2-0.3-26.3-5.9   c-10-6.9-15.4-17.7-15.7-29.8c0-1.6,0.2-3.2,0.2-4.8V791.4c-12,0.1-24.2-0.4-36-0.4H120v166.3c0,16.8-13.8,29.3-30,30   c-16.2,0.7-30-14.3-30-30V66.7c0-16.8,14-29.3,30.2-30c16.2-0.7,30.1,14.3,30.1,30c0,0.5-0.2,1-0.2,1.5c0.1,11.5-0.2,23.1-0.2,34.6   v129.8c6,0,10.8,0.4,16,0.4h316v-16h455.1c12.3,0,24.6,0.3,36.9,0.4c1.3,0,2.5-0.3,3.8-0.3c0.2,0,0.3-0.1,0.5-0.1h0   c1.9,0,3.8,1,5.6,0h0c2.4,0,4.8,0.3,7.2,0.4C962.1,217.5,963.1,217.5,964,217.5z"></path><path d="M964,634.1V676H452v-99.9c0-1.6-0.2-3.3-0.2-4.9c0.2-12.1,5.8-23.1,15.8-30c11.8-8.2,27.9-6.2,41.6-6.2   h81.5c5,0,10,0,15,0.9c10.1,2,17,8.7,23.1,16.4c5.8,7.4,11.5,14.8,17.3,22.1c3.9,5,7.7,10.1,11.7,15c3.8,4.6,8.2,6.6,14,6.6   c8.8,0,17.5-0.1,26.3-0.1h212.4c6,0,12,0,17.9,0.1C949.4,596.6,964,613.6,964,634.1z"></path></g></svg>