<svg height='100px' width='100px'  fill="#000000" xmlns="http://www.w3.org/2000/svg" xmlnsXlink="http://www.w3.org/1999/xlink" version="1.1" x="0px" y="0px" viewBox="0 -2 32 32" overflow="visible" enable-background="new 0 -2 32 32" xmlSpace="preserve"><path d="M31,0H7C6.447,0,6,0.447,6,1v2c0,0.553,0.447,1,1,1h24c0.553,0,1-0.447,1-1V1C32,0.447,31.553,0,31,0z"/><path d="M31,8H7C6.447,8,6,8.447,6,9v2c0,0.553,0.447,1,1,1h24c0.553,0,1-0.447,1-1V9C32,8.447,31.553,8,31,8z"/><path d="M31,16H7c-0.553,0-1,0.447-1,1v2c0,0.553,0.447,1,1,1h24c0.553,0,1-0.447,1-1v-2C32,16.447,31.553,16,31,16z"/><path d="M31,24H7c-0.553,0-1,0.447-1,1v2c0,0.553,0.447,1,1,1h24c0.553,0,1-0.447,1-1v-2C32,24.447,31.553,24,31,24z"/><path d="M3,0H1C0.447,0,0,0.447,0,1v2c0,0.553,0.447,1,1,1h2c0.553,0,1-0.447,1-1V1C4,0.447,3.553,0,3,0z"/><path d="M3,8H1C0.447,8,0,8.447,0,9v2c0,0.553,0.447,1,1,1h2c0.553,0,1-0.447,1-1V9C4,8.447,3.553,8,3,8z"/><path d="M3,16H1c-0.553,0-1,0.447-1,1v2c0,0.553,0.447,1,1,1h2c0.553,0,1-0.447,1-1v-2C4,16.447,3.553,16,3,16z"/><path d="M3,24H1c-0.553,0-1,0.447-1,1v2c0,0.553,0.447,1,1,1h2c0.553,0,1-0.447,1-1v-2C4,24.447,3.553,24,3,24z"/></svg>